<svg id="Layer_1" data-name="Layer 1" xmlns="http://www.w3.org/2000/svg" xmlns:xlink="http://www.w3.org/1999/xlink" viewBox="0 0 400 400">
  <defs>
    <style>
      .cls-1 {
        fill: url(#linear-gradient);
      }

      .cls-2 {
        fill: url(#linear-gradient-2);
      }

      .cls-3 {
        fill: url(#radial-gradient);
      }
    </style>
    <linearGradient id="linear-gradient" x1="-15694.61" y1="-34164.75" x2="-15450.66" y2="-34308.9" gradientTransform="translate(1941.1 4417.1) scale(0.12)" gradientUnits="userSpaceOnUse">
      <stop offset="0" stop-color="#909ca9"/>
      <stop offset="1" stop-color="#ededee"/>
    </linearGradient>
    <linearGradient id="linear-gradient-2" x1="-15689.14" y1="-36881.51" x2="-15492.85" y2="-36881.51" gradientTransform="translate(1941.1 4417.1) scale(0.12)" gradientUnits="userSpaceOnUse">
      <stop offset="0" stop-color="#939fab"/>
      <stop offset="1" stop-color="#dcdee1"/>
    </linearGradient>
    <radialGradient id="radial-gradient" cx="7538.12" cy="12779.3" r="260.61" gradientTransform="matrix(-0.11, -0.02, 0.03, -0.23, 612.65, 3188)" gradientUnits="userSpaceOnUse">
      <stop offset="0" stop-color="#ee352c"/>
      <stop offset="1" stop-color="#a91d22"/>
    </radialGradient>
  </defs>
  <title>p</title>
  <g>
    <path class="cls-1" d="M248,186.7l-80.1,26.2L98.2,243.6l-19.5,5.1c-5,4.7-10.2,9.5-15.8,14.4S51,273.3,46.6,276.8a121.9,121.9,0,0,0-15.9,15.7c-5.5,6.9-9.9,14.2-11.7,19.9-3.3,10.2-1.7,20.5,4.7,30,8.2,12.1,24.6,24.5,43.8,32.9A278.2,278.2,0,0,0,106,388.2c20.5,5.2,60.2,10.8,82.1,11.7a94.2,94.2,0,0,0,10.6,0c.5-.3,3.9-6.8,7.8-14.8,13.4-27.4,23.1-53.2,28.4-75.1,3.1-13.3,5.6-31.1,7.3-52.1.4-5.9.6-25.6.2-32.2a226.2,226.2,0,0,0-3-28.4,6.6,6.6,0,0,1-.2-2.5c.2-.2,1-.4,10.8-3.3l-2-4.7h0Zm-18.3,10.7c.7,0,2.7,18.6,3.1,30.3a16.2,16.2,0,0,1-.1,4.1c-.5,0-10.2-5.8-17.2-10.1s-17.6-11.4-19.4-12.9-.5-.5,4.4-2.2C209.1,203.9,229.1,197.5,229.7,197.5Zm-40.8,13.4c.5,0,1.9.8,5.3,2.8,12.5,7.8,29.4,17.3,36.7,20.4,2.2,1,2.5.6-2.7,4.1-11,7.5-24.8,14.9-41.6,22.3l-5.5,2.4a15.7,15.7,0,0,1,.7-3.3c4.1-15.1,6.4-30.3,6.5-42.6.1-6.1.1-6.1.6-6.2s-.1.1,0,.1Zm-8.4,3.2c.4.4.1,13.9-.4,17.6a154.1,154.1,0,0,1-5.6,26.3,40.4,40.4,0,0,1-1.4,4.2c-.2.3-8.5-7.8-11.3-11a81.9,81.9,0,0,1-11.1-16.2c-1.4-2.7-3.6-8.1-3.4-8.2s32.9-13,33.1-12.8Zm-39.6,15.6h.2a11.3,11.3,0,0,1,.9,2.2,81.8,81.8,0,0,0,10.1,18A102.5,102.5,0,0,0,166,265l3,2.5c.4.4.5.3-9.4,4.1-11.4,4.4-23.9,8.7-38.2,13.3l-10.2,3.3c-.5.2-.4-.1,1.2-2.6,7.1-11.1,17.9-32.8,23.9-48.2,1-2.7,2.1-5.3,2.2-5.9a2.2,2.2,0,0,1,1.3-1.6l1-.2Zm-12.1,5c.2.1-2.9,6.6-5.9,12.5-5.9,11.4-12.3,22.7-20.9,36.4l-3,4.8c-.3.4-.4.3-1.4-1.6a55.5,55.5,0,0,1-4.7-14,56.5,56.5,0,0,1,.3-18c.8-3.8.7-3.7,2.5-4.6,7.8-3.9,32.8-15.7,33.1-15.4Zm104.4,4.2v2.5a329.4,329.4,0,0,1-3.6,45.5c-.4,2.4-.7,4.3-.7,4.4l-3.8-1.1a156.2,156.2,0,0,1-27.9-11.9c-5.9-3.2-14.4-8.5-14.2-8.7l5.6-3a356.7,356.7,0,0,0,33.1-19.4c3.7-2.5,9.3-6.5,10.5-7.6l1-.7ZM83.1,256.8c.2,0,.2.5-.2,2.7s-.5,4.5-.7,6.5c-.5,8.8,1,15.4,5.3,24.3a50.3,50.3,0,0,1,2.1,4.6c-.4.4-40.5,12.1-53.1,15.6l-7.3,2c-.4.1-.5.1-.3-1,1.4-8.9,8.2-20.5,17.6-30.3,6.3-6.5,11.3-10.4,19.9-15.3,6.2-3.5,15.7-8.8,16.4-9h.1Zm94.5,16.9,3.3,1.8c13,7.5,31,14.5,46.4,18l1.4.3-1.9,1.1c-8.1,4.5-34.5,15.5-61.6,25.6l-8.5,3.2-1.4.4,2.5-4.8c7.6-14.2,15.2-31.4,19.1-43.4.5-1.2.8-2.2.8-2.2Zm-9.6,3.1a17.4,17.4,0,0,1-1,2.8,383.4,383.4,0,0,1-21,42.3c-2.2,4-4.1,7.2-4.2,7.2l-4.1-2.4c-12.8-7.9-24.2-17.6-31.7-26.9l-1.1-1.3,5.5-1.5a395.4,395.4,0,0,0,53.2-18.3Zm59.8,20.9h0c.1,1.4-3,13.9-5.6,22.9s-3.9,13.5-7.3,24c-1.5,4.6-2.7,8.4-2.8,8.4l-.8-.2A253.1,253.1,0,0,1,162.1,339c-4.2-1.7-10.3-4.4-10.7-4.7s3.5-1.8,8.1-3.8c27.5-12,56.1-25.7,65.9-31.6a7.9,7.9,0,0,1,2.2-1.1ZM89.6,302.5c.1.1-7.6,11.2-18.3,26.3l-9.7,13.7c-1.6,2.3-4.1,5.9-5.5,8.1l-2.5,3.9-2.7-2.3a100.9,100.9,0,0,1-11.3-11.5c-5.2-6.5-8.7-13.3-10.1-19.6-.7-2.9-.7-4.4-.1-4.5l32.2-7.6L83.2,304l6.4-1.5Zm7.7,3,1.9,2.2a113.7,113.7,0,0,0,28.4,23.3A15.9,15.9,0,0,1,131,333c-.4.3-37.4,13.4-54.6,19.4l-17.6,6.1-1.2-.8-1.1-.8,1.8-2.5c5.7-8.2,12.8-17.3,28.4-36l10.7-12.9ZM145.7,340l6,2.1a193.8,193.8,0,0,0,22.5,7,248.7,248.7,0,0,0,34,5.9c1.3.1,2.1.2,1.8.4s-9.3,3.2-15.9,5.3c-10.4,3.3-42.2,12.7-68.1,20.1l-9.1,2.6a4.8,4.8,0,0,1-2.6-.7,43.8,43.8,0,0,1,3.2-4.1A359.4,359.4,0,0,0,142,345.6l3.7-5.6Zm-10.7.3c.1.1-4.2,7-11.7,18.8l-8.1,12.7-4.1,6.7-1.8,3.1-.9-.2c-2.2-.6-17.5-6-21.6-7.6a149.9,149.9,0,0,1-14.1-6.5c-4.8-2.6-10.9-6.5-10.4-6.6l18.4-5c26.5-7.2,41.2-11.4,50.9-14.4l3.3-.9ZM210.4,358h.1c.2.6-9.6,27.9-13.1,36.4-.8,1.9-1.1,2.4-1.5,2.4l-23.9-3.3c-15.1-2.3-40.4-6.7-46.7-8.2l-1.5-.3,9-2.1c19.4-4.4,28.7-6.7,38.1-9.6a269.6,269.6,0,0,0,35.7-13.7,29.2,29.2,0,0,1,3.9-1.6Z"/>
    <path class="cls-2" d="M165.4,0c-1.3-.2-22.8,7.6-36.7,13.2C110,20.8,95.5,28.1,86.5,34.4c-3.3,2.4-7.5,6.5-8.2,8.2a5.7,5.7,0,0,0-.4,2.1l8.1,7.7,19.3,6.2,46,8.2,52.6,9,.5-4.5H204l-6.9-1.1-1.4-2.5c-7.1-12.6-15-28.2-19.6-38.8a200.3,200.3,0,0,1-8.8-24.4c-1-4.1-1.2-4.4-1.8-4.4h0Zm-1,3.1h.1c.1.1.3,1.8.5,3.8a126.5,126.5,0,0,0,5.9,25.5c2.2,6.7,2.2,6.3-.4,5.5-6.2-1.7-33.8-6.5-53.9-9.3l-5.9-.9c-.2-.2,14.5-7.9,20.9-11,8.3-3.8,31.1-13.3,32.8-13.6ZM106.1,30.2l2.4.8c12.8,4.4,45.1,10.5,62.9,12l3.8.4a28,28,0,0,1-3.8,2c-8.6,4.3-18,9.6-24.6,13.6a25.1,25.1,0,0,1-3.9,2.2l-2.8-.4-2.4-.4-6.1-5.9c-10.7-10.4-19-18.3-22.2-21.4Zm-2.4,1.9,8.5,10.7c4.7,5.9,9.4,11.6,10.4,12.9a19.9,19.9,0,0,1,1.8,2.4c-.2.2-12.4-2.2-18.8-3.6s-9.3-2.2-13.4-3.5l-3.3-1.1v-.8c.1-4.1,5.2-10.1,13.9-16.3l.8-.5Zm72.5,14.5c.2,0,.5.5,1.3,2.2,2.1,4.5,8.5,16.8,10.1,19.1.5.8,1.3.8-7.2-.5-20.5-3.3-27.1-4.4-27.1-4.5l1.4-.9a118.2,118.2,0,0,0,18.5-12.8l2.9-2.4h.2Z"/>
    <path class="cls-3" d="M78.8,41.7a6,6,0,0,0-.1,5.3c.8,1.9,3.1,4.3,5.7,6.7,0,0,26.9,26.3,30.2,30,14.9,17.2,21.4,34.1,22,57.5.4,15-2.5,28.2-9.6,43.5-12.6,27.5-39.2,57.8-80.2,91.5l6-2c3.9-2.9,9.1-6,21.5-12.8,28.5-15.6,60.6-30,100-44.7,56.7-21.3,149.9-46.3,202.9-54.4l5.5-.8-.8-1.3a186.7,186.7,0,0,0-12.2-17.1c-11.6-14.4-25.7-26.1-43-35.8C303,94,272.3,83.7,233.4,76c-7.3-1.5-23.4-4.2-36.5-6.2-27.7-4.3-45.7-7.3-65.4-10.7-7.1-1.2-17.7-3-24.7-4.5a156.9,156.9,0,0,1-16-4.3c-4.4-1.7-10.7-3.4-12-8.5ZM94.4,56.9l2.3.7,8.8,2.7,8,2.1,6.7,1.8c.4.4,6.5,20,8.6,27.5.8,2.8,1.4,5.3,1.3,5.3a12.2,12.2,0,0,1-1.5-2.4C121.5,82,110.3,69.4,97.4,59.2a25.8,25.8,0,0,1-3-2.4Zm29.8,8.2,3.3.5c10.3,2.3,28.8,5.8,40.6,7.8a14.8,14.8,0,0,1,3.6.8,6.1,6.1,0,0,1-1.6,1c-2,1-10.1,5.8-12.7,7.6a116,116,0,0,0-17.1,13.7l-3.3,3.2s-.4-1-.7-2.3a196.2,196.2,0,0,0-10.8-29.7,26,26,0,0,1-1.2-2.8c0,.1,0,.1.1.1Zm52.4,10c.4.1,1,2.2,2.2,6.7a99.1,99.1,0,0,1,2.9,27.7c-.1,2.5-.2,4.9-.4,5.2l-.2.6-3.1-1c-6.5-2.1-17-5.1-26-7.7-5.1-1.4-9.3-2.7-9.3-2.8s7.5-7.9,10.7-10.7c6.1-5.4,22.7-18.2,23.2-18Zm4.2.6c.2-.2,25.1,4.1,36.4,6.3,8.4,1.6,20.6,4.2,21.4,4.5s-.9.8-5,2.7a262.8,262.8,0,0,0-39.7,21.6l-5.8,3.8a33,33,0,0,1-.1-3.9,84.6,84.6,0,0,0-6.5-32.9A9.2,9.2,0,0,1,180.8,75.7Zm64.4,12.7c.2.2-.6,5.1-1.3,8-2.2,9-8.1,22.4-15.3,35a39.9,39.9,0,0,1-2.5,4.1,25.8,25.8,0,0,1-3.6-1.9,197.2,197.2,0,0,0-23.7-11.6l-4.6-2c-.4-.4,19.1-13.3,29.4-19.4,8.2-5,21.5-12.4,21.7-12.1Zm4.6.7c.5,0,11.6,3,17.3,4.7a357.2,357.2,0,0,1,41.2,15.1l4.4,2-3.1.7a451.4,451.4,0,0,0-69.8,21.6l-3.5,1.3a15.6,15.6,0,0,1,1.3-3.1c6.5-13.7,10.7-28.1,11.7-40.3.1-1.2.2-2.1.4-2.1ZM140.1,114.3c.2-.2,8.6,1.8,13.1,3.1,6.9,1.9,21.6,6.8,21.6,7.2l-3.6,3.1c-7.9,6.6-15.6,13.6-24.7,22.4-2.7,2.6-5,4.7-5.1,4.7s-.2-.4-.1-.8c1.4-10.2,1.1-23.3-.8-36.5C140.2,115.8,140,114.4,140.1,114.3Zm176.9.2a116.2,116.2,0,0,1-6.4,10c-3.6,5.2-9,12.1-21,27.2l-15.9,20-4.5,5.6a20.9,20.9,0,0,1-1.7-2.4,125.1,125.1,0,0,0-24.5-27.1l-4.5-3.6-1.2-1c0-.2,10.3-4.6,18.1-7.8,13.7-5.6,32.3-12.2,46.3-16.5,7.3-2.3,15.1-4.5,15.3-4.4Zm4.7,1.2a14,14,0,0,1,3.5,1.7,205.4,205.4,0,0,1,40.5,30.4c3.2,3.1,11.1,11.4,11,11.4l-6.1.5c-25.5,1.9-58.1,7.3-89.5,14.9l-4.1.9c-.1,0,2.2-2.4,5.2-5.2,18.4-17.7,26.8-28.9,36.8-48.9l2.7-5.7h0ZM186.7,129.5c.8.2,8.7,3.9,14.7,6.8s13.6,7.1,14,7.4l-6.4,3.3c-11.4,5.7-21.1,11.1-31.3,17.3l-5.4,3.2c-.2,0-.2-.2,1.5-3.2A126.4,126.4,0,0,0,186.1,131c.2-.9.5-1.5.7-1.5Zm-7.9,1.5c.2.2-1.9,7.6-3.1,11.7A149.1,149.1,0,0,1,165,167.2l-3.2,5.6-1.5,2.4-3.4-3.3a44.5,44.5,0,0,0-11.3-8.3,16.3,16.3,0,0,1-2.9-1.7c0-.5,10.4-9.9,18.3-16.7,5.7-4.9,17.7-14.5,17.9-14.3ZM227,150.8l3,1.9a230.2,230.2,0,0,1,20.9,15.4c3.5,2.8,10.1,8.8,11.4,10.3l.7.8-4.9,1.4c-27.7,7.7-49.2,14.5-74.2,23.7l-5.3,1.9c-.4,0-.7.3,5.6-5.4,16-14.7,30.2-30.9,40.7-46.7l2.1-3.3Zm-12.7,3.1c.1.1-8.2,11.8-13.1,18.4s-16.5,21.1-23.7,29.7l-5.8,6.6c-.2.1-.2-.8-.2-2.2a50.7,50.7,0,0,0-5.1-21.8c-1.4-2.8-1.6-3.5-1.3-3.8s18.8-11.1,29.9-17.1c7.5-4,19.3-9.9,19.4-9.8Zm-76.5,18.8,3.1,1.6a66.5,66.5,0,0,1,10.4,7c.1.1-1.5,1.4-3.5,2.9-5.8,4.1-14.5,10.7-19.6,14.8s-5.5,4.4-4.9,3.5a111.6,111.6,0,0,0,8.1-14,112.7,112.7,0,0,0,5.1-12.7,10.3,10.3,0,0,1,1.2-3.1Zm20.4,16c.3-.1.7.5,2.3,2.9a43.7,43.7,0,0,1,6.8,17.6v1.2l-8.3,3.2c-14.8,5.8-28.5,11.4-37.8,15.7l-10.1,4.8-5.4,2.6,4.2-3.1c18.1-13.1,33.8-27.5,45.5-42l2.5-3h.1Zm-9.4,2.3c.2.2-6.7,8.1-11.4,12.8a200.8,200.8,0,0,1-37.6,30.3l-3.6,2.3c-.4.2.1-.4,6.4-7.2,4-4.3,7-7.9,10.5-12.4a20.5,20.5,0,0,1,6.1-5.8C128.1,204.7,148.6,190.7,148.8,191Z"/>
  </g>
</svg>
